# Blender v2.79 (sub 0) OBJ File: ''
# www.blender.org
mtllib model.mtl
o DrawCall_85
v -0.294921 0.265827 0.499863
v -0.290638 0.166204 0.514952
v -0.225607 0.229865 0.671788
v -0.214276 0.128601 0.668966
v -0.243661 0.090871 0.518149
v -0.197780 0.082205 0.636456
v -0.276543 0.121412 0.213763
v -0.336059 0.214645 0.202533
v -0.353355 0.317439 0.276846
v -0.075269 0.024499 0.698160
v -0.197780 0.082205 0.636456
v -0.071418 0.011876 0.550048
v -0.243661 0.090871 0.518149
v -0.276543 0.121412 0.213763
v -0.043591 0.009117 0.254712
v 0.117471 0.022578 0.574460
v 0.083700 0.029195 0.696543
v 0.185335 0.032816 0.288107
v 0.117471 0.022578 0.574460
v 0.218476 0.120066 0.588806
v 0.083700 0.029195 0.696543
v 0.142418 0.082350 0.721042
v 0.248549 0.246287 0.597283
v 0.167165 0.207760 0.717860
v 0.320537 0.278625 0.423884
v 0.316972 0.142889 0.306795
v 0.185335 0.032816 0.288107
v 0.199868 0.352390 0.598405
v 0.128732 0.303585 0.698313
v 0.268146 0.400548 0.422543
v 0.072059 0.397283 0.618593
v 0.038633 0.331872 0.696482
v -0.343263 0.333808 0.093030
v -0.245263 0.126836 -0.050538
v -0.315118 0.224966 -0.060731
v -0.334892 0.352650 -0.082420
v -0.245263 0.126836 -0.050538
v -0.006535 0.011591 -0.014594
v 0.226590 0.036523 0.023557
v 0.364463 0.293376 0.260357
v 0.400865 0.277348 0.080426
v 0.357176 0.150218 0.046872
v 0.226590 0.036523 0.023557
v 0.329234 0.367552 0.274940
v -0.300407 0.315231 -0.345544
v -0.277550 0.203963 -0.329475
v -0.206254 0.112757 -0.313886
v -0.008891 0.012857 -0.280002
v -0.206254 0.112757 -0.313886
v 0.207828 0.033287 -0.249129
v 0.207828 0.033287 -0.249129
v 0.330742 0.133868 -0.233914
v 0.379290 0.255313 -0.103729
v 0.359480 0.248769 -0.300258
v -0.227109 0.275729 -0.651291
v -0.210824 0.170286 -0.640291
v -0.156989 0.092061 -0.591211
v -0.129864 0.118296 -0.752041
v -0.144817 0.246725 -0.800975
v -0.009434 0.017096 -0.530649
v -0.156989 0.092061 -0.591211
v -0.129864 0.118296 -0.752041
v 0.007200 0.070343 -0.769094
v 0.174773 0.028661 -0.528318
v 0.189891 0.083353 -0.739219
v 0.174773 0.028661 -0.528318
v 0.279475 0.112018 -0.563615
v 0.313262 0.221136 -0.531332
v 0.268368 0.213876 -0.729781
v 0.189891 0.083353 -0.739219
v -0.190558 0.503141 -0.382192
v 0.068012 0.539697 -0.401846
v -0.133176 0.466699 -0.584613
v 0.071385 0.486876 -0.589152
v 0.082713 0.392969 -0.722948
v -0.107352 0.393939 -0.713584
v -0.200244 0.387686 -0.614649
v -0.266239 0.426766 -0.365840
v 0.169692 0.199880 -0.809127
v 0.181945 0.374625 -0.696975
v 0.250030 0.357871 -0.655644
v 0.066394 0.208099 -0.841539
v 0.007200 0.070343 -0.769094
v 0.042814 0.210819 0.743573
v -0.175581 0.297860 0.676055
v -0.141760 0.345349 0.657095
v 0.002362 0.083165 0.746839
v -0.075269 0.024499 0.698160
v -0.282154 0.442149 -0.200201
v -0.197289 0.511395 -0.270477
v -0.308256 0.434733 0.158259
v -0.301397 0.449488 0.050128
v -0.291220 0.452484 -0.060839
v -0.203468 0.529640 -0.092167
v -0.209117 0.532980 -0.001009
v -0.215144 0.520345 0.090370
v 0.094839 0.574414 -0.100110
v 0.101880 0.566666 -0.024553
v 0.085443 0.565547 -0.173859
v 0.288981 0.450655 -0.299410
v 0.302730 0.449421 -0.222844
v 0.271822 0.441427 -0.372376
v 0.341150 0.351953 -0.301229
v 0.319676 0.346709 -0.420928
v 0.293244 0.337484 -0.526949
v -0.223064 0.339376 0.579406
v -0.265227 0.374735 0.457835
v -0.300386 0.402689 0.319795
v -0.218406 0.484519 0.296549
v -0.193920 0.462533 0.405384
v -0.165776 0.425526 0.509866
v 0.073716 0.541779 0.288372
v 0.082318 0.514249 0.366274
v 0.315899 0.466101 0.085931
v 0.320446 0.456860 0.154074
v 0.062499 0.553115 0.214406
v 0.305144 0.465398 0.019837
v 0.379403 0.375091 0.076443
v 0.371444 0.374739 -0.022647
v 0.355159 0.369072 -0.115597
v -0.282595 0.443489 -0.104618
v -0.260879 0.445470 -0.164822
v -0.308504 0.397778 -0.110620
v -0.201338 0.510110 -0.127345
v -0.188002 0.489711 -0.215153
v 0.078391 0.545033 -0.202556
v 0.080110 0.507127 -0.316753
v 0.260872 0.427673 -0.393875
v 0.247630 0.399643 -0.513434
v 0.275043 0.340078 -0.538148
v 0.261056 0.294768 -0.631325
v -0.301784 0.405632 0.269578
v -0.295056 0.424234 0.203217
v -0.332509 0.365008 0.253663
v -0.219302 0.477951 0.257337
v -0.214981 0.489360 0.149123
v 0.057332 0.543815 0.187665
v 0.094390 0.531124 0.042161
v 0.291299 0.456237 -0.013007
v 0.292578 0.444200 -0.149575
v 0.336104 0.374202 -0.137613
v 0.326588 0.370900 -0.219453
v 0.345262 0.309551 -0.243794
v 0.080760 0.455721 0.418234
v -0.146312 0.369014 0.567850
v 0.063969 0.416190 0.512471
v 0.296745 0.423916 0.205390
v 0.329234 0.367552 0.274940
v 0.268146 0.400548 0.422543
v 0.355917 0.330392 0.167249
v -0.201338 0.510110 -0.127345
v 0.078391 0.545033 -0.202556
v -0.282595 0.443489 -0.104618
v -0.308504 0.397778 -0.110620
v -0.260879 0.445470 -0.164822
v -0.188002 0.489711 -0.215153
v 0.080110 0.507127 -0.316753
v 0.247630 0.399643 -0.513434
v 0.261056 0.294768 -0.631325
v 0.275043 0.340078 -0.538148
v 0.260872 0.427673 -0.393875
v -0.219302 0.477951 0.257337
v -0.301784 0.405632 0.269578
v -0.332509 0.365008 0.253663
v -0.295056 0.424234 0.203217
v -0.214981 0.489360 0.149123
v 0.094390 0.531124 0.042161
v 0.292578 0.444200 -0.149575
v 0.326588 0.370900 -0.219453
v 0.345262 0.309551 -0.243794
v 0.336104 0.374202 -0.137613
v 0.291299 0.456237 -0.013007
v 0.057332 0.543815 0.187665
v -0.184909 0.320606 0.603662
v -0.146312 0.369014 0.567850
v -0.146312 0.369014 0.567850
v 0.080760 0.455721 0.418234
v 0.296745 0.423916 0.205390
v 0.355917 0.330392 0.167249
v 0.063969 0.416190 0.512471
vt 0.946368 0.715229
vt 0.942766 0.722451
vt 0.888081 0.797514
vt 0.490713 0.103871
vt 0.481116 0.102520
vt 0.426045 0.177583
vt 0.465827 0.176053
vt 0.504683 0.119430
vt 0.437982 0.321736
vt 0.387580 0.327111
vt 0.422418 0.184805
vt 0.372933 0.291544
vt 0.203883 0.530088
vt 0.252430 0.508862
vt 0.202357 0.479139
vt 0.270612 0.468165
vt 0.283642 0.363458
vt 0.191330 0.377545
vt 0.127506 0.487536
vt 0.140889 0.529532
vt 0.100614 0.389032
vt 0.127506 0.487536
vt 0.087481 0.492471
vt 0.140889 0.529532
vt 0.494035 0.779211
vt 0.518106 0.772153
vt 0.462855 0.741115
vt 0.857190 0.142236
vt 0.882657 0.138179
vt 0.792780 0.078947
vt 0.813737 0.080470
vt 0.943621 0.221170
vt 0.940601 0.277210
vt 0.048451 0.395461
vt 0.100614 0.389032
vt 0.489357 0.761855
vt 0.530293 0.762392
vt 0.557794 0.819564
vt 0.590112 0.810209
vt 0.472878 0.678222
vt 0.428821 0.678864
vt 0.637769 0.772054
vt 0.665878 0.809332
vt 0.381480 0.379520
vt 0.464471 0.448234
vt 0.405315 0.453112
vt 0.388568 0.463492
vt 0.271246 0.272540
vt 0.176646 0.284905
vt 0.084266 0.298029
vt 0.980819 0.299435
vt 1.011647 0.385552
vt 0.974649 0.401612
vt 0.032519 0.306049
vt 0.084266 0.298029
vt 0.421508 0.607578
vt 0.391883 0.600598
vt 0.417772 0.589427
vt 0.437129 0.581736
vt 0.497506 0.574275
vt 0.177580 0.193606
vt 0.255788 0.181951
vt 0.091701 0.204226
vt 0.091701 0.204226
vt 0.042994 0.209460
vt 0.952262 0.535999
vt 0.993376 0.473691
vt 0.976599 0.567752
vt 0.479845 0.735761
vt 0.493636 0.730496
vt 0.539226 0.707006
vt 0.562197 0.783981
vt 0.549534 0.807401
vt 0.177795 0.107385
vt 0.236267 0.086552
vt 0.225518 0.031228
vt 0.171203 0.025361
vt 0.104800 0.108187
vt 0.098809 0.035639
vt 0.104800 0.108187
vt 0.063309 0.096045
vt 0.908847 0.693798
vt 0.937460 0.678347
vt 0.899441 0.773327
vt 0.832982 0.777844
vt 0.098809 0.035639
vt 0.858608 0.293067
vt 0.641173 0.283661
vt 0.810354 0.196186
vt 0.638336 0.194014
vt 0.628811 0.129977
vt 0.788639 0.134459
vt 0.866753 0.181811
vt 0.922249 0.300894
vt 0.889344 0.164273
vt 0.950981 0.310607
vt 0.820143 0.092633
vt 0.555669 0.088731
vt 0.545364 0.142409
vt 0.472690 0.126707
vt 0.488111 0.162190
vt 0.642533 0.073218
vt 0.815877 0.811303
vt 0.728399 0.826816
vt 0.678270 0.792143
vt 0.662362 0.831871
vt 0.846013 0.799556
vt 0.817573 0.790482
vt 0.674173 0.066600
vt 0.583797 0.769431
vt 0.580055 0.831768
vt 0.618748 0.782795
vt 0.696378 0.833434
vt 0.532260 0.805630
vt 0.708430 0.068163
vt 0.551450 0.786642
vt 0.935632 0.380170
vt 0.979980 0.436541
vt 0.864268 0.346535
vt 0.957581 0.551733
vt 0.951813 0.499981
vt 0.995506 0.608490
vt 0.987019 0.520514
vt 0.943256 0.446870
vt 0.869464 0.431876
vt 0.874214 0.475506
vt 0.879282 0.519241
vt 0.618614 0.428075
vt 0.612692 0.464237
vt 0.626515 0.392778
vt 0.455357 0.332688
vt 0.443795 0.369333
vt 0.469786 0.297765
vt 0.411487 0.331817
vt 0.429545 0.274528
vt 0.451772 0.223785
vt 0.434938 0.221687
vt 0.396074 0.332282
vt 0.885943 0.753299
vt 0.921398 0.695114
vt 0.950963 0.629046
vt 0.882026 0.617920
vt 0.861434 0.670010
vt 0.837768 0.720016
vt 0.636376 0.614007
vt 0.629142 0.651292
vt 0.432721 0.517116
vt 0.428897 0.549730
vt 0.645809 0.578606
vt 0.441765 0.485483
vt 0.379319 0.512575
vt 0.386013 0.465149
vt 0.399706 0.420662
vt 0.379415 0.426343
vt 0.361272 0.514481
vt 0.309650 0.641218
vt 0.273232 0.653782
vt 0.306020 0.626919
vt 0.295902 0.686432
vt 0.242787 0.694598
vt 0.250404 0.842055
vt 0.181326 0.844021
vt 0.134673 0.944838
vt 0.062352 0.938563
vt 0.047403 0.953967
vt -0.008961 0.947046
vt 0.302681 0.596385
vt 0.262920 0.603245
vt 0.291785 0.580180
vt 0.298766 0.642495
vt 0.233648 0.650009
vt 0.268366 0.798496
vt 0.182123 0.825849
vt 0.157120 0.937155
vt 0.074764 0.944334
vt 0.083814 0.967793
vt 0.034029 0.966419
vt 0.020126 0.977881
vt 0.186303 0.771795
vt 0.253266 0.633223
vt 0.240897 0.753328
vt 0.080513 0.910573
vt 0.125219 0.921409
vt 0.207307 0.873520
vt 0.063569 0.946600
vt 0.867673 0.415040
vt 0.632445 0.379043
vt 0.936003 0.425917
vt 0.957790 0.423044
vt 0.917741 0.397103
vt 0.856458 0.373014
vt 0.630999 0.324387
vt 0.490129 0.230253
vt 0.478839 0.173829
vt 0.467078 0.218425
vt 0.478994 0.287476
vt 0.882779 0.599153
vt 0.952139 0.605011
vt 0.977976 0.597395
vt 0.946481 0.573251
vt 0.879145 0.547361
vt 0.618991 0.496167
vt 0.452332 0.404400
vt 0.423733 0.370956
vt 0.408029 0.359306
vt 0.415731 0.410125
vt 0.453408 0.469763
vt 0.650154 0.565807
vt 0.853858 0.764908
vt 0.821401 0.747768
vt 0.821401 0.747768
vt 0.630453 0.676160
vt 0.448828 0.574291
vt 0.399069 0.556036
vt 0.644572 0.721263
vn -0.9337 0.1706 0.3149
vn -0.9361 -0.2699 0.2257
vn -0.6620 0.1733 0.7292
vn -0.6547 -0.3340 0.6781
vn -0.8385 -0.5141 0.1803
vn -0.6513 -0.5330 0.5401
vn -0.8414 -0.5397 -0.0283
vn -0.9369 -0.3493 -0.0141
vn -0.9843 0.1046 0.1419
vn -0.1817 -0.9806 0.0739
vn -0.4390 -0.8944 0.0859
vn -0.1954 -0.9802 0.0319
vn -0.4177 -0.9085 0.0057
vn -0.4229 -0.9045 -0.0550
vn -0.1720 -0.9849 -0.0203
vn 0.0494 -0.9985 0.0225
vn 0.0301 -0.9976 0.0624
vn 0.0943 -0.9955 0.0030
vn 0.6589 -0.7275 0.1911
vn 0.8183 -0.4890 0.3022
vn 0.3659 -0.7124 0.5989
vn 0.5577 -0.4484 0.6985
vn 0.8772 0.0734 0.4745
vn 0.5742 0.0929 0.8134
vn 0.9409 0.0697 0.3313
vn 0.8300 -0.5281 0.1794
vn 0.6320 -0.7682 0.1019
vn 0.5968 0.6169 0.5131
vn 0.3616 0.4942 0.7906
vn 0.7644 0.5357 0.3587
vn 0.0722 0.8958 0.4385
vn -0.0391 0.5941 0.8034
vn -0.9932 0.1036 -0.0531
vn -0.8104 -0.5789 -0.0906
vn -0.9215 -0.3771 -0.0925
vn -0.9857 0.1437 -0.0875
vn -0.4331 -0.9006 -0.0381
vn -0.1578 -0.9873 -0.0162
vn 0.1049 -0.9945 0.0042
vn 0.9717 0.1147 0.2065
vn 0.9974 -0.0225 0.0681
vn 0.8356 -0.5488 0.0263
vn 0.6492 -0.7600 0.0299
vn 0.8972 0.3828 0.2204
vn -0.9837 0.0188 -0.1786
vn -0.8986 -0.4239 -0.1134
vn -0.7827 -0.6173 -0.0799
vn -0.1862 -0.9825 -0.0082
vn -0.4491 -0.8933 -0.0163
vn 0.0969 -0.9953 0.0018
vn 0.6323 -0.7735 -0.0435
vn 0.8308 -0.5516 -0.0741
vn 0.9919 -0.0861 -0.0929
vn 0.9893 -0.0474 -0.1377
vn -0.9171 0.0720 -0.3922
vn -0.8694 -0.3931 -0.2994
vn -0.7671 -0.6244 -0.1474
vn -0.5968 -0.4058 -0.6922
vn -0.5445 0.0920 -0.8337
vn -0.1808 -0.9773 -0.1106
vn -0.4080 -0.9043 -0.1254
vn -0.3566 -0.9078 -0.2210
vn -0.1224 -0.9668 -0.2244
vn 0.0707 -0.9896 -0.1254
vn 0.0873 -0.9705 -0.2248
vn 0.5987 -0.7946 -0.1007
vn 0.8147 -0.5535 -0.1730
vn 0.9792 -0.0618 -0.1930
vn 0.8281 0.0138 -0.5604
vn 0.5702 -0.5440 -0.6155
vn -0.4620 0.8664 -0.1896
vn 0.2744 0.9615 0.0137
vn -0.3630 0.8451 -0.3926
vn 0.2207 0.8986 -0.3794
vn 0.1316 0.6890 -0.7127
vn -0.2991 0.6866 -0.6626
vn -0.7567 0.5098 -0.4094
vn -0.8507 0.4808 -0.2124
vn 0.4363 0.0036 -0.8998
vn 0.4286 0.6663 -0.6102
vn 0.7721 0.5297 -0.3511
vn 0.0745 0.0217 -0.9970
vn -0.0676 -0.4415 -0.8947
vn -0.0053 0.1755 0.9845
vn -0.4694 0.4236 0.7747
vn -0.2943 0.7032 0.6473
vn -0.0805 -0.2803 0.9565
vn -0.3710 -0.2510 0.8941
vn -0.7343 0.6766 0.0546
vn -0.3271 0.9354 0.1345
vn -0.7525 0.6360 0.1708
vn -0.8280 0.5605 -0.0168
vn -0.8020 0.5836 -0.1271
vn -0.4317 0.8695 -0.2400
vn -0.4090 0.9123 0.0202
vn -0.3181 0.9090 0.2692
vn 0.2015 0.9793 -0.0174
vn 0.3213 0.9050 0.2788
vn 0.0515 0.9481 -0.3137
vn 0.6677 0.7239 -0.1735
vn 0.7723 0.6351 0.0177
vn 0.4336 0.8054 -0.4042
vn 0.9492 0.3048 -0.0783
vn 0.9191 0.3292 -0.2166
vn 0.7267 0.5663 -0.3889
vn -0.5443 0.5920 0.5944
vn -0.7524 0.5515 0.3603
vn -0.7781 0.5884 0.2198
vn -0.4638 0.8820 0.0833
vn -0.3995 0.8554 0.3298
vn -0.2166 0.8051 0.5521
vn 0.1479 0.9626 0.2270
vn 0.3002 0.8068 0.5089
vn 0.6008 0.7993 -0.0129
vn 0.6878 0.6626 0.2966
vn 0.0278 0.9978 -0.0610
vn 0.4730 0.8537 -0.2179
vn 0.9205 0.3810 0.0863
vn 0.9052 0.4073 -0.1210
vn 0.7790 0.5672 -0.2674
vn -0.7618 0.5954 -0.2552
vn -0.6862 0.6848 -0.2452
vn -0.8192 0.5010 -0.2790
vn -0.4617 0.8472 -0.2627
vn -0.3253 0.9090 -0.2606
vn -0.0700 0.9479 -0.3109
vn 0.0970 0.9465 -0.3078
vn 0.4094 0.8772 -0.2510
vn 0.7480 0.6122 -0.2562
vn 0.7987 0.5040 -0.3288
vn 0.7790 0.5099 -0.3649
vn -0.7411 0.6623 0.1105
vn -0.6711 0.7342 0.1028
vn -0.8099 0.5809 0.0807
vn -0.4367 0.8970 0.0682
vn -0.2789 0.9561 0.0897
vn -0.1181 0.9854 -0.1229
vn 0.2532 0.9674 -0.0033
vn 0.4173 0.9051 -0.0817
vn 0.7946 0.6059 -0.0390
vn 0.8194 0.5610 -0.1179
vn 0.9118 0.3962 -0.1077
vn 0.9350 0.3331 -0.1222
vn 0.3684 0.8330 0.4129
vn -0.1103 0.9234 0.3677
vn 0.0624 0.9390 0.3381
vn 0.6878 0.6868 0.2353
vn 0.5993 0.7751 0.2001
vn -0.0260 0.9732 -0.2283
vn 0.8500 0.5259 0.0291
vn -0.4465 0.7697 -0.4564
vn -0.1370 0.8222 -0.5525
vn -0.7561 0.5896 -0.2839
vn -0.8623 0.2528 -0.4387
vn -0.5438 0.8116 0.2133
vn -0.2054 0.9094 0.3616
vn 0.3193 0.8992 0.2993
vn 0.6277 0.7601 -0.1680
vn 0.9174 0.3407 -0.2058
vn 0.4292 0.7633 -0.4829
vn 0.0371 0.8372 -0.5457
vn -0.4730 0.8701 -0.1385
vn -0.7546 0.6548 0.0428
vn -0.9214 0.3292 -0.2064
vn -0.6345 0.6999 0.3280
vn -0.2755 0.8556 0.4382
vn 0.2688 0.8375 0.4757
vn 0.7232 0.6694 0.1698
vn 0.9527 0.2811 0.1158
vn 0.9617 0.2733 -0.0196
vn 0.6287 0.6881 -0.3624
vn 0.3352 0.8645 -0.3747
vn -0.0841 0.9465 -0.3116
vn -0.4529 0.6978 0.5549
vn -0.3326 0.9072 0.2575
vn -0.0490 0.7028 0.7097
vn 0.3568 0.6224 0.6966
vn 0.7085 0.3999 0.5815
vn 0.8875 0.3858 0.2519
vn 0.0074 0.9830 0.1832
usemtl Material.001
s 1
f 1/1/1 2/2/2 3/3/3
f 4/4/4 3/5/3 2/6/2
f 2/6/2 5/7/5 4/4/4
f 6/8/6 4/4/4 5/7/5
f 5/7/5 2/6/2 7/9/7
f 8/10/8 7/9/7 2/6/2
f 2/6/2 1/11/1 8/10/8
f 9/12/9 8/10/8 1/11/1
f 10/13/10 11/14/11 12/15/12
f 13/16/13 12/15/12 11/14/11
f 13/16/13 14/17/14 12/15/12
f 15/18/15 12/15/12 14/17/14
f 12/15/12 16/19/16 10/13/10
f 17/20/17 10/13/10 16/19/16
f 16/19/16 12/15/12 18/21/18
f 15/18/15 18/21/18 12/15/12
f 19/22/19 20/23/20 21/24/21
f 22/25/22 21/26/21 20/27/20
f 20/28/20 23/29/23 22/30/22
f 24/31/24 22/30/22 23/29/23
f 23/29/23 20/28/20 25/32/25
f 26/33/26 25/32/25 20/28/20
f 20/23/20 19/22/19 26/34/26
f 27/35/27 26/34/26 19/22/19
f 23/36/23 28/37/28 24/38/24
f 29/39/29 24/38/24 28/37/28
f 28/37/28 23/36/23 30/40/30
f 25/41/25 30/40/30 23/36/23
f 28/37/28 31/42/31 29/39/29
f 32/43/32 29/39/29 31/42/31
f 28/37/28 30/40/30 31/42/31
f 8/10/8 9/12/9 33/44/33
f 7/9/7 8/10/8 34/45/34
f 35/46/35 34/45/34 8/10/8
f 8/10/8 33/44/33 35/46/35
f 36/47/36 35/46/35 33/44/33
f 14/17/14 37/48/37 15/18/15
f 38/49/38 15/18/15 37/48/37
f 18/21/18 15/18/15 39/50/39
f 38/49/38 39/50/39 15/18/15
f 25/32/25 26/33/26 40/51/40
f 40/51/40 26/33/26 41/52/41
f 42/53/42 41/52/41 26/33/26
f 26/34/26 27/35/27 42/54/42
f 43/55/43 42/54/42 27/35/27
f 44/56/44 30/40/30 40/57/40
f 25/41/25 40/57/40 30/40/30
f 45/58/45 46/59/46 36/47/36
f 35/46/35 36/47/36 46/59/46
f 46/59/46 47/60/47 35/46/35
f 34/45/34 35/46/35 47/60/47
f 38/49/38 37/48/37 48/61/48
f 49/62/49 48/61/48 37/48/37
f 48/61/48 50/63/50 38/49/38
f 39/50/39 38/49/38 50/63/50
f 51/64/51 52/65/52 43/55/43
f 42/54/42 43/55/43 52/65/52
f 52/66/52 53/67/53 42/53/42
f 41/52/41 42/53/42 53/67/53
f 52/66/52 54/68/54 53/67/53
f 55/69/55 56/70/56 45/58/45
f 46/59/46 45/58/45 56/70/56
f 56/70/56 57/71/57 46/59/46
f 47/60/47 46/59/46 57/71/57
f 56/70/56 58/72/58 57/71/57
f 56/70/56 55/69/55 58/72/58
f 59/73/59 58/72/58 55/69/55
f 48/61/48 49/62/49 60/74/60
f 61/75/61 60/74/60 49/62/49
f 61/75/61 62/76/62 60/74/60
f 63/77/63 60/74/60 62/76/62
f 60/74/60 64/78/64 48/61/48
f 50/63/50 48/61/48 64/78/64
f 64/78/64 60/74/60 65/79/65
f 63/77/63 65/79/65 60/74/60
f 66/80/66 67/81/67 51/64/51
f 52/65/52 51/64/51 67/81/67
f 67/82/67 68/83/68 52/66/52
f 54/68/54 52/66/52 68/83/68
f 68/83/68 67/82/67 69/84/69
f 70/85/70 69/84/69 67/82/67
f 66/80/66 70/86/70 67/81/67
f 71/87/71 72/88/72 73/89/73
f 74/90/74 73/89/73 72/88/72
f 74/90/74 75/91/75 73/89/73
f 76/92/76 73/89/73 75/91/75
f 73/89/73 77/93/77 71/87/71
f 78/94/78 71/87/71 77/93/77
f 77/93/77 55/95/55 78/94/78
f 45/96/45 78/94/78 55/95/55
f 55/95/55 77/93/77 59/97/59
f 76/92/76 59/97/59 77/93/77
f 73/89/73 76/92/76 77/93/77
f 79/98/79 80/99/80 69/100/69
f 81/101/81 69/100/69 80/99/80
f 80/99/80 79/98/79 75/91/75
f 82/102/82 75/91/75 79/98/79
f 59/97/59 76/92/76 82/102/82
f 75/91/75 82/102/82 76/92/76
f 69/84/69 70/85/70 79/103/79
f 79/103/79 70/85/70 82/104/82
f 83/105/83 82/104/82 70/85/70
f 59/73/59 82/104/82 58/72/58
f 83/105/83 58/72/58 82/104/82
f 84/106/84 29/39/29 32/43/32
f 32/43/32 31/42/31 85/107/85
f 86/108/86 85/107/85 31/42/31
f 84/106/84 32/43/32 3/3/3
f 85/107/85 3/3/3 32/43/32
f 4/4/4 6/8/6 87/109/87
f 88/110/88 87/111/87 6/112/6
f 84/106/84 3/3/3 87/113/87
f 4/4/4 87/109/87 3/5/3
f 87/111/87 88/110/88 21/114/21
f 84/115/84 87/109/87 24/31/24
f 22/30/22 24/31/24 87/109/87
f 21/26/21 22/25/22 87/116/87
f 89/117/89 78/94/78 36/118/36
f 45/96/45 36/118/36 78/94/78
f 78/94/78 89/117/89 71/87/71
f 90/119/90 71/87/71 89/117/89
f 72/88/72 71/87/71 90/119/90
f 74/90/74 72/88/72 80/99/80
f 81/101/81 80/99/80 72/88/72
f 75/91/75 74/90/74 80/99/80
f 91/120/91 92/121/92 9/122/9
f 33/123/33 9/122/9 92/121/92
f 92/121/92 93/124/93 33/123/33
f 36/118/36 33/123/33 93/124/93
f 93/124/93 92/121/92 94/125/94
f 95/126/95 94/125/94 92/121/92
f 92/121/92 91/120/91 95/126/95
f 96/127/96 95/126/95 91/120/91
f 95/126/95 96/127/96 97/128/97
f 98/129/98 97/128/97 96/127/96
f 94/125/94 95/126/95 99/130/99
f 97/128/97 99/130/99 95/126/95
f 97/128/97 98/129/98 100/131/100
f 101/132/101 100/131/100 98/129/98
f 99/130/99 97/128/97 102/133/102
f 100/131/100 102/133/102 97/128/97
f 103/134/103 104/135/104 101/132/101
f 100/131/100 101/132/101 104/135/104
f 104/135/104 105/136/105 100/131/100
f 102/133/102 100/131/100 105/136/105
f 105/136/105 104/135/104 69/100/69
f 68/137/68 69/100/69 104/135/104
f 104/135/104 103/134/103 68/137/68
f 54/138/54 68/137/68 103/134/103
f 106/139/106 107/140/107 3/3/3
f 1/1/1 3/3/3 107/140/107
f 107/140/107 108/141/108 1/1/1
f 9/122/9 1/1/1 108/141/108
f 108/141/108 107/140/107 109/142/109
f 110/143/110 109/142/109 107/140/107
f 107/140/107 106/139/106 110/143/110
f 111/144/111 110/143/110 106/139/106
f 112/145/112 113/146/113 114/147/114
f 115/148/115 114/147/114 113/146/113
f 116/149/116 112/145/112 117/150/117
f 114/147/114 117/150/117 112/145/112
f 118/151/118 119/152/119 115/148/115
f 114/147/114 115/148/115 119/152/119
f 119/152/119 120/153/120 114/147/114
f 117/150/117 114/147/114 120/153/120
f 120/153/120 119/152/119 54/138/54
f 53/154/53 54/138/54 119/152/119
f 119/152/119 118/151/118 53/154/53
f 41/155/41 53/154/53 118/151/118
f 121/156/121 122/157/122 123/158/123
f 121/156/121 124/159/124 122/157/122
f 125/160/125 122/157/122 124/159/124
f 126/161/126 127/162/127 124/159/124
f 125/160/125 124/159/124 127/162/127
f 128/163/128 129/164/129 126/161/126
f 127/162/127 126/161/126 129/164/129
f 130/165/130 129/164/129 128/163/128
f 131/166/131 129/164/129 130/165/130
f 132/167/132 133/168/133 134/169/134
f 132/167/132 135/170/135 133/168/133
f 136/171/136 133/168/133 135/170/135
f 137/172/137 138/173/138 135/170/135
f 136/171/136 135/170/135 138/173/138
f 139/174/139 140/175/140 137/172/137
f 138/173/138 137/172/137 140/175/140
f 141/176/141 142/177/142 139/174/139
f 140/175/140 139/174/139 142/177/142
f 141/176/141 143/178/143 142/177/142
f 144/179/144 145/180/145 146/181/146
f 147/182/147 144/179/144 148/183/148
f 146/181/146 148/183/148 144/179/144
f 146/181/146 149/184/149 148/183/148
f 147/182/147 148/183/148 150/185/150
f 94/125/94 99/130/99 151/186/151
f 152/187/152 151/186/151 99/130/99
f 151/186/151 153/188/153 94/125/94
f 93/124/93 94/125/94 153/188/153
f 153/188/153 154/189/154 93/124/93
f 36/118/36 93/124/93 154/189/154
f 154/189/154 155/190/155 36/118/36
f 89/117/89 36/118/36 155/190/155
f 155/190/155 156/191/156 89/117/89
f 90/119/90 89/117/89 156/191/156
f 72/88/72 90/119/90 157/192/157
f 156/191/156 157/192/157 90/119/90
f 81/101/81 72/88/72 158/193/158
f 157/192/157 158/193/158 72/88/72
f 159/194/159 81/101/81 158/193/158
f 69/100/69 81/101/81 159/194/159
f 159/194/159 160/195/160 69/100/69
f 105/136/105 69/100/69 160/195/160
f 160/195/160 161/196/161 105/136/105
f 102/133/102 105/136/105 161/196/161
f 99/130/99 102/133/102 152/187/152
f 161/196/161 152/187/152 102/133/102
f 162/197/162 163/198/163 109/142/109
f 108/141/108 109/142/109 163/198/163
f 163/198/163 164/199/164 108/141/108
f 9/122/9 108/141/108 164/199/164
f 164/199/164 165/200/165 9/122/9
f 91/120/91 9/122/9 165/200/165
f 165/200/165 166/201/166 91/120/91
f 96/127/96 91/120/91 166/201/166
f 98/129/98 96/127/96 167/202/167
f 166/201/166 167/202/167 96/127/96
f 101/132/101 98/129/98 168/203/168
f 167/202/167 168/203/168 98/129/98
f 168/203/168 169/204/169 101/132/101
f 103/134/103 101/132/101 169/204/169
f 169/204/169 170/205/170 103/134/103
f 54/138/54 103/134/103 170/205/170
f 170/205/170 171/206/171 54/138/54
f 120/153/120 54/138/54 171/206/171
f 171/206/171 172/207/172 120/153/120
f 117/150/117 120/153/120 172/207/172
f 116/149/116 117/150/117 173/208/173
f 172/207/172 173/208/173 117/150/117
f 109/142/109 116/149/116 162/197/162
f 173/208/173 162/197/162 116/149/116
f 85/107/85 86/108/86 174/209/174
f 175/210/175 174/209/174 86/108/86
f 3/3/3 85/107/85 174/209/174
f 106/139/106 3/3/3 174/209/174
f 111/144/111 106/139/106 176/211/176
f 174/209/174 176/211/176 106/139/106
f 113/146/113 111/144/111 177/212/177
f 176/211/176 177/212/177 111/144/111
f 115/148/115 113/146/113 178/213/178
f 177/212/177 178/213/178 113/146/113
f 118/151/118 115/148/115 179/214/179
f 178/213/178 179/214/179 115/148/115
f 41/155/41 118/151/118 179/214/179
f 44/56/44 40/57/40 179/214/179
f 31/42/31 30/40/30 180/215/180
f 175/210/175 86/108/86 180/215/180
f 31/42/31 180/215/180 86/108/86
f 111/144/111 113/146/113 110/143/110
f 112/145/112 110/143/110 113/146/113
f 116/149/116 109/142/109 112/145/112
f 110/143/110 112/145/112 109/142/109
f 24/38/24 29/39/29 84/106/84
f 41/155/41 179/214/179 40/57/40
